<svg xmlns="http://www.w3.org/2000/svg" viewBox="0 0 129.28 119.91"><defs><style>.cls-1{fill:#ffd985;}.cls-1,.cls-2{stroke:#000;stroke-miterlimit:10;stroke-width:2px;}.cls-2{fill:#ffaa5a;}</style></defs><g id="text"><path class="cls-1" d="M101.86,56.48a54,54,0,0,1-7.21,6.22.53.53,0,0,0-.17.66c3.46,7.34,7.27,30.71,2.29,37.81-4.1,7.58-7,8.42-13.33,9.2C49.62,114.5-.2,121,9.55,73.35c1.77-8.12,2.42-10.58,2.62-11.26a.5.5,0,0,0-.09-.44c-16.19-22.31.71-49.81,29.17-41.53a25.42,25.42,0,0,1,9.67,5,.51.51,0,0,0,.62.06C82.22,7.33,112.16,30.35,102,56.28A.63.63,0,0,1,101.86,56.48Z"/><path class="cls-2" d="M119.11,75c1.8,17.74-8.37,28.24-26.81,33.45a1,1,0,0,1-1-1.54c7.9-9.76,6.09-33.41,1.42-43a1.38,1.38,0,0,1,.46-1.7c7.77-5.66,12.36-13.32,7-25.11l-.08-.13c-10.57-15-23.63-20.2-47.63-10.21a2.11,2.11,0,0,1-2.2-.38C40.09,17.61,20.58,19.86,11,29.45a.88.88,0,0,1-1.45-.91C15.79,9.4,26.07,1,52.6,12.64a.66.66,0,0,0,.48,0A118.59,118.59,0,0,1,77.77,7.18c30-4.89,61.36,27.57,37,51.38a.67.67,0,0,0-.16.72C115.39,61.11,118.33,68.74,119.11,75Z"/></g></svg>