<svg xmlns="http://www.w3.org/2000/svg" viewBox="0 0 100.91 50.53"><defs><style>.cls-1,.cls-5{fill:none;}.cls-1,.cls-2,.cls-3,.cls-4,.cls-5{stroke:#000;}.cls-1,.cls-2,.cls-3,.cls-4{stroke-miterlimit:10;}.cls-2{fill:#ffaa5a;}.cls-3{fill:#ffc97b;}.cls-4{fill:#ffd985;}.cls-5{stroke-linecap:round;stroke-linejoin:round;}</style></defs><g id="Layer_2" data-name="Layer 2"><rect class="cls-1" x="3.98" y="6" width="92.95" height="38.54" rx="16.58"/><circle class="cls-2" cx="50.45" cy="25.27" r="10.2"/><circle class="cls-3" cx="77.66" cy="25.27" r="10.2"/><circle class="cls-4" cx="23.25" cy="25.27" r="10.2"/><circle cx="72.98" cy="24.49" r="1.28"/><circle cx="82.34" cy="24.49" r="1.28"/><path class="cls-5" d="M81.35,28.88a7.68,7.68,0,0,1-7.1,0"/><ellipse cx="18.56" cy="21.98" rx="1.28" ry="1.01"/><ellipse cx="27.93" cy="21.98" rx="1.28" ry="1.01"/><path class="cls-5" d="M23.39,26H18.85c.33,1.34,2.06,3.74,4.54,3.74s4.22-2.4,4.54-3.74Z"/><circle cx="45.77" cy="24.49" r="1.28"/><circle cx="55.13" cy="24.49" r="1.28"/><path class="cls-5" d="M47.05,29.75a7.68,7.68,0,0,1,7.1,0"/></g></svg>