<svg xmlns="http://www.w3.org/2000/svg" viewBox="0 0 24.7 26.63"><defs><style>.cls-1{fill:#ffd985;stroke-miterlimit:10;}.cls-1,.cls-2{stroke:#000;}.cls-2{fill:none;stroke-linecap:round;stroke-linejoin:round;}.cls-3{fill:#7dd7ff;}</style></defs><g id="Layer_2" data-name="Layer 2"><circle class="cls-1" cx="12.35" cy="13.31" r="10.7"/><path class="cls-2" d="M12.5,14.09H7.75c.33,1.41,2.15,5.47,4.75,5.47s4.42-4.06,4.76-5.47Z"/></g><g id="popup"><path class="cls-2" d="M6.93,9.75a3.34,3.34,0,0,1,1.45.79,9.73,9.73,0,0,0-2.54,1.14"/><path class="cls-2" d="M18.07,9.75a3.34,3.34,0,0,0-1.45.79,9.89,9.89,0,0,1,2.55,1.14"/><path class="cls-3" d="M5,13.44c-.67.54-1.76,2-.65,2.3S5.27,14.25,5,13.44Z"/><path class="cls-3" d="M20,13.44c.66.54,1.75,2,.64,2.3S19.73,14.25,20,13.44Z"/></g></svg>