<svg xmlns="http://www.w3.org/2000/svg" viewBox="0 0 100.91 50.53"><defs><style>.cls-1{fill:none;}.cls-1,.cls-2{stroke:#000;stroke-miterlimit:10;}.cls-2{fill:#ffd985;}</style></defs><g id="Layer_2" data-name="Layer 2"><rect class="cls-1" x="3.98" y="6" width="92.95" height="38.54" rx="16.58"/><circle class="cls-2" cx="51.13" cy="36.38" r="2.21"/><path class="cls-2" d="M47.11,23.36l.1,0a2.52,2.52,0,0,0,1.44-2.7c0-.31-.15-.85-.14-1.08.09-1.46,2.28-1.86,3.09-1.32s1.22,2-.13,4.25a18.84,18.84,0,0,0-2.66,6.7A2.5,2.5,0,0,0,51.28,32h0a2.5,2.5,0,0,0,2.48-2.32,7.64,7.64,0,0,1,.53-2.42c.87-2.09,3-4.52,3.44-6.46A7,7,0,0,0,56,14a7.36,7.36,0,0,0-6.83-1.54,7.84,7.84,0,0,0-5.29,3.85c-1.11,2.26-1.15,4.13-.47,5.31a7.32,7.32,0,0,0,.89,1.16A2.49,2.49,0,0,0,47.11,23.36Z"/></g></svg>